<svg xmlns="http://www.w3.org/2000/svg" xmlns:xlink="http://www.w3.org/1999/xlink" width="500" zoomAndPan="magnify" viewBox="0 0 375 374.999991" height="500" preserveAspectRatio="xMidYMid meet" version="1.0"><path fill="red" d="M 370.886719 226.035156 C 366.691406 214.722656 358.128906 206 348.878906 198.585938 C 346.566406 196.734375 344.210938 194.949219 341.847656 193.171875 C 340.9375 192.492188 340.027344 192.242188 339.1875 192.273438 C 346.074219 186.558594 350.699219 178.398438 352.6875 169.472656 C 355.71875 155.902344 352.046875 142.015625 345.078125 130.238281 C 341.425781 124.066406 336.894531 118.394531 331.984375 113.175781 C 327 107.890625 321.46875 103.175781 316.261719 98.117188 C 311.164062 93.164062 306.425781 87.828125 303.296875 81.386719 C 300.488281 75.617188 299.148438 69.210938 297.628906 63.015625 C 294.542969 50.449219 290.171875 37.742188 278.046875 31.222656 C 266.277344 24.894531 252.050781 25.867188 239.277344 27.722656 C 224.308594 29.902344 209.535156 33.039062 194.351562 33.328125 C 179.46875 33.617188 164.257812 31.738281 150.71875 25.21875 C 144.105469 22.035156 137.515625 17.613281 129.828125 18.207031 C 123.390625 18.703125 118.402344 22.238281 114.5625 27.234375 C 111.816406 30.804688 109.917969 34.960938 109.015625 39.347656 C 108.984375 39.34375 108.953125 39.335938 108.917969 39.332031 C 93.765625 37.710938 81.195312 48.121094 69.304688 55.917969 C 62.761719 60.210938 55.835938 63.992188 48.613281 67.019531 C 41.675781 69.925781 34.378906 71.695312 27.398438 74.433594 C 20.464844 77.148438 14.292969 81.34375 10.859375 88.148438 C 7.734375 94.332031 6.816406 101.539062 7.617188 108.375 C 9.207031 121.933594 16.210938 134.003906 25.28125 143.964844 C 32.894531 152.332031 41.902344 159.289062 51.207031 165.738281 C 49.273438 165.609375 47.339844 165.472656 45.402344 165.367188 C 39.449219 165.042969 33.363281 164.34375 27.40625 164.914062 C 21.644531 165.464844 16.171875 167.253906 11.964844 171.382812 C 8.371094 174.910156 6.105469 179.78125 5.042969 184.648438 C 2.496094 196.363281 6.789062 207.75 7.066406 219.4375 C 7.363281 232 3.933594 244.222656 2.136719 256.570312 C 0.542969 267.523438 0.0117188 279.160156 3.84375 289.742188 C 7.707031 300.40625 15.660156 308.089844 24.71875 314.527344 C 33.71875 320.921875 43.363281 326.597656 52.902344 332.136719 C 62.957031 337.976562 73.4375 343.242188 84.601562 346.609375 C 97.855469 350.605469 111.71875 351.242188 125.449219 350.128906 C 139.886719 348.953125 154.246094 346.628906 168.566406 344.484375 C 169.804688 344.300781 170.929688 343.710938 171.574219 342.757812 C 172.191406 343.03125 172.800781 343.308594 173.421875 343.574219 C 184.183594 348.175781 195.308594 351.71875 206.804688 353.96875 C 218.019531 356.164062 229.519531 357.25 240.949219 356.820312 C 252.222656 356.398438 263.882812 354.6875 274.503906 350.769531 C 280.035156 348.726562 285.292969 345.941406 289.535156 341.789062 C 293.542969 337.863281 296.4375 332.933594 298.953125 327.96875 C 301.492188 322.960938 303.785156 317.832031 306.859375 313.121094 C 309.703125 308.765625 313.09375 304.820312 316.773438 301.15625 C 324.351562 293.609375 333.019531 287.308594 341.578125 280.933594 C 350.433594 274.339844 360.273438 267.691406 366.988281 258.789062 C 374.207031 249.203125 375 237.113281 370.886719 226.035156 Z M 115.472656 35.421875 C 117.859375 30.347656 121.925781 26.125 127.476562 24.675781 C 133.925781 22.992188 140.160156 27.101562 145.660156 29.886719 C 158.46875 36.363281 172.648438 39.148438 186.921875 39.597656 C 201.492188 40.054688 216.335938 38.554688 230.707031 36.21875 C 242.632812 34.277344 255.316406 31.753906 267.300781 34.65625 C 272.871094 36.003906 277.878906 38.699219 281.710938 43.007812 C 285.5 47.269531 287.605469 52.796875 289.214844 58.183594 C 292.875 70.421875 294.789062 82.953125 302.75 93.382812 C 311.054688 104.265625 322.335938 112.359375 331.070312 122.875 C 339.191406 132.652344 345.988281 144.914062 346.519531 157.871094 C 346.902344 167.304688 344.125 177.160156 337.929688 184.359375 C 337.386719 184.355469 336.796875 184.511719 336.195312 184.882812 C 333.691406 186.425781 331.5625 188.726562 329.230469 190.53125 C 326.863281 192.363281 324.425781 194.109375 321.929688 195.761719 C 316.851562 199.125 311.535156 202.15625 306.027344 204.773438 C 295.257812 209.894531 283.785156 212.59375 272.382812 215.859375 C 273.371094 214.207031 274.367188 212.5625 275.351562 210.90625 C 281.171875 201.101562 285.578125 190.925781 285.640625 179.347656 C 285.675781 172.335938 284.242188 165.261719 281.535156 158.742188 C 281.609375 158.484375 281.660156 158.207031 281.652344 157.890625 C 280.960938 134.820312 267.082031 114.339844 249.3125 100.5 C 249.097656 100.332031 248.871094 100.214844 248.644531 100.121094 C 247.9375 98.953125 247.15625 97.824219 246.3125 96.746094 C 239.007812 87.429688 228.410156 82.28125 217.371094 78.671875 C 203.945312 74.285156 190.019531 70.386719 176.109375 67.925781 C 162.050781 65.433594 147.042969 64.03125 133.363281 68.9375 C 133.257812 68.972656 133.164062 69.027344 133.066406 69.078125 C 128.96875 69.816406 125.117188 71.429688 121.605469 73.652344 C 116.074219 62.046875 109.601562 47.90625 115.472656 35.421875 Z M 335.933594 194.664062 C 335.90625 194.738281 335.875 194.808594 335.851562 194.882812 C 335.757812 194.886719 335.664062 194.890625 335.566406 194.90625 C 335.691406 194.828125 335.8125 194.746094 335.933594 194.664062 Z M 74.421875 95.894531 C 79.300781 90.953125 84.949219 86.796875 91.34375 84.003906 C 97.523438 81.304688 105.847656 79.117188 112.53125 81.472656 C 111.8125 82.289062 111.113281 83.121094 110.453125 83.980469 C 103.433594 93.121094 99.167969 104.175781 96.679688 115.355469 C 91.71875 137.640625 92.46875 162.636719 104.554688 182.617188 C 104.667969 182.804688 104.792969 182.976562 104.90625 183.15625 C 96.324219 177.378906 88.933594 169.886719 83.304688 161.183594 C 75.667969 149.378906 71.558594 135.539062 71.296875 121.492188 C 71.144531 113.203125 72.339844 104.9375 74.835938 97.03125 C 74.992188 96.542969 74.777344 96.152344 74.421875 95.894531 Z M 252.421875 142.957031 C 252.097656 140.195312 251.671875 137.378906 251.121094 134.558594 C 255.113281 139.589844 260.6875 143.5 265.246094 148.085938 C 271.785156 154.660156 275.980469 163.539062 277.308594 172.695312 C 278.773438 182.851562 276.464844 192.375 271.761719 201.375 C 269.898438 204.941406 267.78125 208.441406 265.953125 212.054688 C 265.808594 212.191406 265.65625 212.320312 265.53125 212.503906 C 263.355469 215.796875 261.882812 219.464844 259.816406 222.828125 C 257.804688 226.105469 255.980469 229.488281 253.992188 232.777344 C 250.144531 239.136719 245.265625 244.964844 238.863281 248.878906 C 231.6875 253.261719 223.25 255.183594 215.042969 256.570312 C 207.746094 257.804688 200.304688 258.328125 192.902344 258.289062 C 192.28125 258.285156 191.652344 258.253906 191.03125 258.242188 C 190.722656 257.824219 190.242188 257.503906 189.542969 257.382812 C 180.96875 255.929688 175.785156 248.4375 171.457031 241.585938 C 166.695312 234.042969 161.796875 227.199219 154.003906 222.535156 C 140.125 214.21875 123.246094 213.417969 109.234375 205.417969 C 102.90625 201.804688 97.289062 196.804688 94.746094 189.96875 C 96.34375 191.144531 97.960938 192.285156 99.636719 193.347656 C 111.175781 200.699219 124.253906 205.113281 137.351562 208.789062 C 144.054688 210.664062 150.835938 212.273438 157.621094 213.828125 C 164.628906 215.433594 171.914062 216.652344 179.109375 215.832031 C 188.582031 217.234375 198.382812 217.148438 207.605469 214.378906 C 215.75 211.9375 223.199219 207.457031 228.816406 201.03125 C 231.882812 197.519531 234.269531 193.480469 235.8125 189.078125 C 235.839844 188.996094 235.824219 188.929688 235.835938 188.855469 C 238.664062 186.261719 241.292969 183.457031 243.59375 180.347656 C 251.605469 169.503906 253.964844 156.179688 252.421875 142.957031 Z M 252.601562 110.285156 C 263.304688 120.382812 271.820312 133.101562 275.007812 147.390625 C 272.394531 144.003906 269.382812 141.007812 266.117188 138.199219 C 262.507812 135.09375 258.546875 132.050781 256.03125 127.9375 C 252.972656 122.9375 253.6875 116.910156 252.804688 111.332031 C 252.75 110.980469 252.671875 110.636719 252.601562 110.285156 Z M 177.425781 257.285156 C 153.84375 254.359375 130.507812 244.894531 114.433594 227.253906 C 108.351562 220.582031 103.519531 213.015625 99.410156 205.035156 C 106.277344 210.769531 115.269531 214.464844 123.546875 216.957031 C 131.769531 219.433594 140.292969 221.40625 148.011719 225.273438 C 151.773438 227.160156 155.3125 229.464844 158.296875 232.453125 C 161.675781 235.839844 164.167969 239.925781 166.703125 243.945312 C 169.683594 248.671875 173.089844 253.632812 177.425781 257.285156 Z M 104.488281 151.851562 C 107.453125 166.9375 114.320312 181.230469 125.152344 192.253906 C 129.277344 196.457031 133.980469 200.089844 139.109375 202.976562 C 137.148438 202.515625 135.191406 202.039062 133.246094 201.527344 C 133.027344 201.128906 132.65625 200.78125 132.09375 200.546875 C 113.988281 193.015625 102.394531 174.648438 100.0625 155.566406 C 98.695312 144.351562 99.699219 132.992188 102.0625 121.980469 C 102.578125 119.570312 103.15625 117.152344 103.808594 114.75 C 102.171875 127.085938 102.085938 139.621094 104.488281 151.851562 Z M 186.820312 214.378906 C 191.316406 213.214844 195.6875 211.59375 199.996094 209.78125 C 205.664062 207.398438 211.285156 204.871094 216.714844 201.988281 C 221.820312 199.277344 226.804688 196.210938 231.382812 192.648438 C 228.511719 198.167969 224.152344 202.847656 219.015625 206.382812 C 211.773438 211.355469 203.035156 213.835938 194.320312 214.359375 C 191.820312 214.507812 189.316406 214.503906 186.820312 214.378906 Z M 241.660156 170.035156 C 241.472656 170.417969 241.242188 170.773438 241.039062 171.148438 C 242.890625 162.746094 243.648438 154.101562 243.214844 145.503906 C 242.671875 134.664062 240.578125 123.292969 234.757812 113.953125 C 233.367188 111.714844 231.722656 109.640625 229.863281 107.792969 C 238.621094 113.464844 242.378906 124.777344 244.4375 134.472656 C 246.933594 146.257812 247.171875 159.03125 241.660156 170.035156 Z M 239.917969 108.277344 C 231.480469 98.054688 217.542969 95.824219 204.988281 97.429688 C 192.398438 99.039062 180.753906 104.53125 170.628906 112.0625 C 160.285156 119.757812 149.78125 128.800781 142.671875 139.671875 C 135.511719 150.621094 132.996094 165.054688 136.84375 177.636719 C 140.40625 189.28125 150.011719 200.695312 161.390625 205.359375 C 174.617188 210.785156 187.8125 202.761719 197.949219 194.734375 C 207.453125 187.210938 217.167969 178.082031 220.136719 165.855469 C 222.929688 154.351562 218.207031 142.070312 209.800781 134.066406 C 200.457031 125.171875 187.269531 122.089844 174.707031 123.96875 C 171.683594 124.417969 168.765625 125.132812 165.925781 126.074219 C 166.464844 125.503906 166.992188 124.921875 167.546875 124.363281 C 175.296875 116.527344 185.527344 110.121094 195.941406 106.53125 C 203.632812 103.882812 212.867188 102.390625 221.132812 104.222656 C 221.21875 104.296875 221.296875 104.375 221.417969 104.4375 C 230.238281 108.902344 235.164062 118.0625 237.785156 127.234375 C 240.984375 138.433594 241.449219 150.640625 239.96875 162.152344 C 239.28125 167.464844 238.136719 172.714844 236.574219 177.835938 C 232.160156 183.320312 226.585938 187.847656 220.625 191.628906 C 211.238281 197.59375 200.777344 202.5 190.273438 206.140625 C 184.050781 208.292969 177.742188 209.578125 171.132812 209.128906 C 164.683594 208.691406 158.28125 207.035156 151.957031 205.75 C 150.410156 205.433594 148.867188 205.121094 147.324219 204.796875 C 147.210938 204.53125 147.015625 204.296875 146.75 204.1875 C 133.320312 198.695312 122.703125 188.105469 115.675781 175.558594 C 107.53125 161.007812 104.722656 144.164062 105.328125 127.640625 C 105.660156 118.546875 107.019531 109.523438 109.03125 100.65625 C 110.429688 97.847656 112.027344 95.140625 113.941406 92.628906 C 120.195312 84.402344 129.082031 78.480469 138.761719 75.023438 C 139.417969 74.789062 139.925781 74.402344 140.289062 73.933594 C 150.285156 73.335938 160.3125 73.519531 170.21875 75.121094 C 182.414062 77.09375 194.335938 80.386719 206.207031 83.742188 C 216.5625 86.664062 227.570312 89.730469 235.78125 97.0625 C 239.257812 100.164062 242.304688 103.949219 243.914062 108.363281 C 244.945312 111.179688 245.257812 114.105469 245.496094 117.050781 C 243.953125 113.914062 242.125 110.949219 239.917969 108.277344 Z M 171.300781 179.582031 C 171.011719 178.558594 170.980469 177.964844 170.988281 176.71875 C 170.996094 173.757812 171.519531 170.792969 171.898438 167.863281 C 171.898438 167.863281 171.898438 167.859375 171.898438 167.859375 C 173.335938 172.464844 175.984375 176.671875 179.585938 179.882812 C 178.957031 180.0625 178.324219 180.25 177.695312 180.425781 C 176.421875 180.78125 175.109375 181.238281 173.796875 181.40625 C 172.851562 181.523438 172.347656 181.378906 172.03125 181.09375 C 171.582031 180.6875 171.835938 180.980469 171.582031 180.421875 C 171.757812 180.804688 171.351562 179.75 171.300781 179.582031 Z M 175.945312 159.371094 C 175.96875 158.148438 175.042969 157.085938 173.890625 156.808594 C 173.371094 156.164062 172.257812 155.949219 171.609375 156.617188 C 166.398438 161.957031 162.566406 168.207031 161.914062 175.78125 C 161.300781 182.878906 164.613281 190.371094 172.503906 190.996094 C 176.257812 191.292969 180.039062 189.933594 183.59375 188.898438 C 187.0625 187.890625 190.558594 186.84375 193.886719 185.4375 C 198.703125 183.398438 203.1875 180.792969 207.136719 177.464844 C 205.964844 178.914062 204.722656 180.292969 203.449219 181.578125 C 199.460938 185.597656 195.054688 189.246094 190.460938 192.554688 C 185.511719 196.125 180.132812 199.324219 174.117188 200.664062 C 162.160156 203.328125 151.578125 194.113281 146.21875 184.25 C 143.65625 179.53125 141.851562 173.875 142.203125 168.453125 C 142.570312 162.8125 144.382812 157.453125 147.085938 152.515625 C 150.054688 147.09375 153.304688 141.878906 156.914062 136.933594 C 157.914062 137.425781 159.128906 137.496094 160.378906 136.804688 C 170.402344 131.246094 182.539062 128.65625 193.726562 131.933594 C 194.0625 132.03125 194.394531 132.152344 194.726562 132.261719 C 194.890625 132.644531 195.238281 132.96875 195.632812 133.039062 C 202.585938 134.28125 205.867188 141.554688 206.308594 147.925781 C 206.582031 151.90625 206.074219 155.886719 205.550781 159.824219 C 205.09375 163.246094 204.554688 166.730469 203.21875 169.933594 C 200.59375 171.847656 197.699219 173.390625 194.679688 174.71875 C 191.578125 176.078125 188.375 177.203125 185.140625 178.226562 C 185.027344 177.816406 184.820312 177.441406 184.476562 177.171875 C 178.921875 172.804688 175.800781 166.265625 175.945312 159.371094 Z M 206.957031 139.996094 C 210.234375 143.378906 212.726562 147.5 214.074219 152.03125 C 213.695312 154.515625 213.234375 156.714844 212.144531 159.027344 C 211.054688 161.347656 209.777344 163.527344 208.101562 165.476562 C 207.746094 165.890625 207.371094 166.277344 206.996094 166.664062 C 207.304688 165.414062 207.566406 164.152344 207.761719 162.871094 C 208.28125 159.535156 208.726562 156.160156 208.921875 152.785156 C 209.171875 148.414062 208.730469 143.933594 206.957031 139.996094 Z M 71.550781 141.070312 C 75.1875 154.183594 82.40625 166.164062 92.082031 175.707031 C 96.875 180.429688 102.300781 184.488281 108.136719 187.839844 C 110.136719 190.496094 112.34375 192.996094 114.761719 195.273438 C 104.507812 190.824219 95.269531 184.6875 87.453125 176.679688 C 87.429688 176.617188 87.40625 176.554688 87.382812 176.492188 C 87.015625 175.488281 86.3125 174.882812 85.511719 174.59375 C 71.648438 159.347656 63.464844 138.757812 66.15625 118.027344 C 67.019531 111.359375 68.796875 104.90625 71.03125 98.597656 C 71.242188 98.582031 71.453125 98.542969 71.664062 98.460938 C 67.726562 112.3125 67.703125 127.1875 71.550781 141.070312 Z M 72.835938 166.660156 C 73.335938 167.441406 73.828125 168.226562 74.355469 168.988281 C 76.441406 172.007812 78.734375 174.875 81.175781 177.609375 C 81.207031 177.820312 81.261719 178.039062 81.34375 178.265625 C 87.644531 195.511719 94.597656 212.902344 106.175781 227.371094 C 115.839844 239.445312 128.433594 249.050781 142.488281 255.480469 C 156.960938 262.109375 172.546875 265.460938 188.429688 266.105469 C 196.304688 266.421875 204.203125 266.050781 212.011719 264.992188 C 220.855469 263.792969 229.714844 262.03125 237.890625 258.34375 C 245.222656 255.039062 251.195312 249.875 256.09375 243.667969 C 255.121094 248.714844 254.226562 253.777344 253.152344 258.800781 C 248.390625 270.074219 240.632812 279.828125 231.460938 287.851562 C 221.714844 296.375 210.378906 303.308594 198.496094 308.421875 C 191.808594 311.304688 184.628906 313.546875 177.292969 313.652344 C 173.625 313.703125 170.015625 313.1875 166.515625 312.074219 C 163.128906 310.996094 159.910156 309.46875 156.65625 308.058594 C 153.417969 306.65625 150.117188 305.320312 146.648438 304.601562 C 142.828125 303.816406 138.917969 303.75 135.027344 303.886719 C 131.175781 304.023438 127.328125 304.335938 123.472656 304.234375 C 120.261719 304.152344 117.058594 303.796875 113.90625 303.171875 C 103.152344 301.03125 93.066406 295.917969 84.972656 288.546875 C 79.742188 281.226562 76 272.960938 73.472656 264.148438 C 69.332031 249.71875 67.445312 234.429688 66.644531 219.46875 C 65.820312 204.097656 66.800781 188.679688 70.757812 173.753906 C 71.386719 171.378906 72.101562 169.015625 72.835938 166.660156 Z M 108.011719 304.03125 C 114.5625 305.960938 121.335938 306.707031 128.148438 306.472656 C 132.203125 306.335938 136.257812 305.988281 140.316406 306.136719 C 144.210938 306.277344 147.921875 307.046875 151.570312 308.398438 C 158.496094 310.960938 164.878906 314.695312 172.320312 315.644531 C 179.757812 316.597656 187.28125 315.078125 194.292969 312.628906 C 200.996094 310.289062 207.410156 307.0625 213.558594 303.523438 C 219.230469 300.261719 224.695312 296.617188 229.800781 292.523438 C 237.765625 286.140625 244.90625 278.570312 250.316406 269.894531 C 250.308594 269.921875 250.300781 269.945312 250.292969 269.972656 C 247.042969 280.375 241.898438 290.6875 232.914062 297.285156 C 232.171875 297.828125 231.835938 298.558594 231.785156 299.292969 C 220.8125 305.257812 209.464844 310.464844 197.605469 314.371094 C 173.382812 322.347656 147.375 324.074219 123.003906 315.691406 C 112.039062 311.921875 101.578125 305.980469 93.132812 297.996094 C 92.644531 297.53125 92.203125 297.039062 91.734375 296.5625 C 96.773438 299.785156 102.253906 302.332031 108.011719 304.03125 Z M 253.824219 277.445312 C 257.863281 266.679688 259.054688 255.242188 261.460938 244.066406 C 262.394531 239.734375 263.457031 235.496094 264.875 231.351562 C 264.980469 231.371094 265.085938 231.402344 265.207031 231.390625 C 276.089844 230.679688 287.050781 228.769531 297.464844 225.519531 C 306.859375 222.589844 315.910156 218.300781 323.425781 211.867188 C 323.886719 211.472656 324.316406 211.042969 324.765625 210.632812 C 318.84375 219.925781 312.820312 229.144531 306.675781 238.316406 C 302.515625 244.53125 298.292969 250.757812 293.269531 256.324219 C 288.050781 262.109375 281.953125 266.910156 275.597656 271.371094 C 266.335938 277.871094 256.894531 284.316406 247.1875 290.324219 C 249.925781 286.351562 252.125 281.980469 253.824219 277.445312 Z M 283.074219 226.683594 C 277.339844 227.8125 271.550781 228.652344 265.722656 229.0625 C 266.078125 228.121094 266.421875 227.179688 266.832031 226.246094 C 268.042969 223.464844 269.488281 220.804688 271.007812 218.179688 C 271.246094 218.5625 271.644531 218.851562 272.195312 218.867188 C 284.652344 219.140625 297.082031 215.085938 308.398438 210.132812 C 314.125 207.625 319.675781 204.757812 324.957031 201.40625 C 326.914062 200.160156 328.824219 198.84375 330.710938 197.488281 C 330.730469 197.484375 330.746094 197.480469 330.765625 197.472656 C 331.933594 196.964844 333.050781 196.386719 334.136719 195.765625 C 334.078125 195.839844 334.015625 195.90625 333.964844 195.992188 C 333.484375 196.761719 333 197.53125 332.519531 198.300781 C 332.058594 198.234375 331.585938 198.359375 331.320312 198.796875 C 321 215.625 301.578125 223.039062 283.074219 226.683594 Z M 94.320312 54.917969 C 97.640625 51.929688 101.917969 49.679688 106.386719 49.132812 C 107.757812 48.96875 108.394531 47.796875 108.300781 46.742188 C 108.355469 46.738281 108.410156 46.730469 108.464844 46.726562 C 108.78125 53.644531 111.171875 60.546875 114.195312 66.679688 C 115.664062 69.664062 117.332031 72.558594 119.015625 75.429688 C 118.167969 76.070312 117.347656 76.75 116.546875 77.453125 C 108.46875 73.578125 98.507812 75.394531 90.515625 78.660156 C 84.921875 80.945312 79.800781 84.152344 75.199219 88.011719 C 76.183594 85.703125 77.195312 83.402344 78.21875 81.125 C 82.386719 71.871094 86.617188 61.851562 94.320312 54.917969 Z M 17.421875 112.167969 C 16.0625 106.578125 15.96875 100.609375 17.757812 95.105469 C 19.523438 89.6875 23.597656 85.96875 28.738281 83.722656 C 35.199219 80.898438 42.222656 79.425781 48.792969 76.847656 C 55.898438 74.050781 62.804688 70.722656 69.371094 66.824219 C 75.578125 63.132812 81.386719 58.832031 87.464844 54.941406 C 85.351562 57.351562 83.480469 60.011719 81.824219 62.710938 C 78.710938 67.792969 76.25 73.222656 73.777344 78.632812 C 70.851562 85.039062 68.046875 91.519531 65.738281 98.175781 C 61.414062 110.660156 59.265625 123.753906 61.304688 136.894531 C 62.617188 145.378906 65.503906 153.585938 69.570312 161.148438 C 69.535156 161.207031 69.496094 161.257812 69.464844 161.320312 C 68.628906 163.050781 67.867188 164.8125 67.171875 166.601562 C 66.777344 165.855469 66.179688 165.195312 65.433594 164.699219 C 45.925781 151.734375 23.304688 136.351562 17.421875 112.167969 Z M 131.65625 341.722656 C 119.964844 342.945312 107.929688 343.628906 96.285156 341.644531 C 74.664062 337.960938 55.875 326.136719 37.933594 314.195312 C 29.820312 308.792969 21.101562 303.488281 15.457031 295.308594 C 9.488281 286.65625 8.417969 276.144531 9.160156 265.90625 C 9.980469 254.53125 13.253906 243.515625 14.78125 232.238281 C 15.609375 226.105469 16.039062 219.945312 15.453125 213.765625 C 14.914062 208.050781 13.714844 202.410156 13.289062 196.679688 C 12.921875 191.765625 13.132812 186.613281 15.332031 182.105469 C 17.519531 177.617188 21.121094 174.984375 26.070312 174.152344 C 31.84375 173.179688 38.082031 173.898438 43.898438 174.023438 C 50.824219 174.175781 57.730469 174.214844 64.65625 174.140625 C 61.589844 184.972656 60.523438 196.464844 60.390625 207.59375 C 60.207031 223.398438 61.941406 239.410156 65.019531 254.910156 C 67.875 269.289062 72.824219 283.636719 81.945312 295.296875 C 89.605469 305.085938 99.546875 312.824219 110.777344 318.121094 C 122.148438 323.484375 134.328125 326.5625 146.707031 327.648438 C 148.039062 329.007812 149.402344 330.339844 150.894531 331.515625 C 153.160156 333.304688 155.617188 334.707031 158.136719 336.109375 C 159.3125 336.765625 160.5 337.402344 161.691406 338.023438 C 151.6875 339.289062 141.6875 340.667969 131.65625 341.722656 Z M 362.820312 251.464844 C 360.0625 256.074219 356.03125 259.765625 351.972656 263.214844 C 348.09375 266.515625 344.042969 269.601562 339.964844 272.652344 C 331.566406 278.933594 323 285.050781 315.210938 292.09375 C 307.480469 299.089844 300.78125 307.085938 295.902344 316.328125 C 293.429688 321.015625 291.238281 325.875 288.339844 330.324219 C 285.527344 334.640625 281.886719 338.027344 277.363281 340.488281 C 268.359375 345.386719 257.242188 347.261719 247.136719 348.160156 C 236.523438 349.105469 225.777344 348.707031 215.25 347.101562 C 203.046875 345.238281 191.054688 341.90625 179.507812 337.5625 C 173.863281 335.441406 168.363281 332.964844 162.953125 330.300781 C 161.523438 329.59375 160.117188 328.820312 158.699219 328.082031 C 168.136719 327.941406 177.582031 326.695312 186.765625 324.429688 C 216.828125 317.007812 243.691406 300.449219 269.015625 283.179688 C 275.484375 278.769531 281.996094 274.382812 288.050781 269.410156 C 294.203125 264.359375 299.300781 258.386719 303.847656 251.867188 C 308.507812 245.175781 312.59375 238.089844 316.878906 231.160156 C 321.445312 223.765625 326.003906 216.378906 330.824219 209.140625 C 333.050781 205.792969 335.277344 202.445312 337.507812 199.097656 C 346.324219 205.65625 355.460938 212.679688 361.164062 222.261719 C 366.40625 231.074219 368.296875 242.3125 362.820312 251.464844 Z M 362.820312 251.464844 " fill-opacity="1" fill-rule="nonzero"/></svg>